<svg width="300" height="206" viewBox="0 0 300 206" fill="none" xmlns="http://www.w3.org/2000/svg">
<path fill-rule="evenodd" clip-rule="evenodd" d="M108.305 92.735H126.327C126.592 92.735 126.807 92.5201 126.807 92.255C126.807 91.9899 126.592 91.775 126.327 91.775H105.057H95.9327L59.8512 191.1C59.7607 191.349 59.4853 191.478 59.2361 191.387C58.987 191.297 58.8584 191.022 58.9489 190.772L94.9113 91.775H78.4331C77.5975 91.775 76.92 91.0976 76.92 90.2619C76.92 89.4263 77.5975 88.7489 78.4331 88.7489H110.002C109.95 88.6312 109.945 88.4918 110.005 88.3597L115.168 76.8951C115.416 76.3451 115.798 75.8662 116.279 75.5024L117.25 74.7674C118.366 73.9234 119.797 73.6171 121.159 73.9286V73.9286L128.233 56.7119C129.146 55.6666 130.094 55.3484 131.077 55.7573C131.092 55.7637 131.108 55.7703 131.123 55.7771C132.268 56.2835 132.786 57.6221 132.279 58.767C129.206 65.7154 126.816 71.118 125.11 74.9746L134.598 77.491C134.854 77.559 135.007 77.8218 134.939 78.0781C134.871 78.3343 134.608 78.4869 134.352 78.419L124.717 75.8635C124.292 76.8239 123.915 77.6749 123.587 78.4167C124.334 78.7011 124.675 79.8283 124.806 81.8165C124.823 82.0871 124.614 82.3187 124.343 82.3277C121.654 82.4171 119.387 82.8513 117.543 83.6258C116.643 84.0034 115.906 84.6288 115.333 85.5104C115.919 85.5272 116.455 85.5995 117.012 85.7681C118.24 86.1399 119.129 86.9076 119.497 88.1438L128.33 88.2176H186.744L197.853 123.346C198.328 124.847 198.064 126.405 197.265 127.627H214.392C214.746 126.522 215.561 125.832 216.676 125.495C217.168 125.346 217.641 125.278 218.154 125.259C217.638 124.49 216.982 123.942 216.186 123.608C214.501 122.902 212.43 122.505 209.972 122.423L204.165 122.423C203.9 122.423 203.685 122.208 203.685 121.943C203.685 121.678 203.9 121.463 204.165 121.463L209.98 121.463L209.996 121.463C212.567 121.548 214.754 121.967 216.557 122.723C218.375 123.486 219.565 125.138 220.131 127.627H225.042C224.519 125.094 223.506 123.483 222.022 122.752C220.297 121.902 216.778 120.516 211.482 118.601C211.302 118.536 211.185 118.375 211.167 118.196L208.126 115.573C207.925 115.4 207.902 115.097 208.076 114.896C208.249 114.695 208.552 114.673 208.753 114.846L211.719 117.404C220.945 119.59 226.033 121.104 227.213 122.051C228.991 123.478 230.146 125.471 230.678 128.009C230.689 128.06 230.691 128.111 230.685 128.16H239.083C239.918 128.16 240.596 128.837 240.596 129.673C240.596 130.509 239.918 131.186 239.083 131.186H199.085L227.382 190.73C227.496 190.97 227.394 191.256 227.155 191.37C226.915 191.484 226.629 191.382 226.515 191.142L198.022 131.186H184.468L206.343 173.701H199.756L205.204 190.79C205.303 191.1 205.072 191.416 204.747 191.416H201.645C201.638 191.416 201.63 191.416 201.623 191.416H157.138C156.801 191.416 156.569 191.079 156.69 190.764L157.445 188.796C158.259 186.672 160.045 185.068 162.244 184.486L170.443 182.318L167.757 173.701H157.138L142.231 135.514C142.393 135.402 142.476 135.196 142.422 134.995L134.615 105.785C134.108 103.888 135.162 101.924 137.023 101.298L156.213 94.8494C156.465 94.765 156.6 94.4928 156.515 94.2415C156.431 93.9902 156.159 93.855 155.908 93.9394L136.718 100.388C134.376 101.175 133.049 103.647 133.687 106.033L141.371 134.78L137.468 173.561H125.698V190.936C125.698 191.201 125.483 191.416 125.218 191.416H120.471C120.206 191.416 119.991 191.201 119.991 190.936V180.351L111.551 191.23C111.46 191.348 111.32 191.416 111.172 191.416H77.6983C77.3617 191.416 77.1296 191.079 77.2501 190.764L78.0049 188.796C78.8195 186.672 80.6053 185.068 82.8048 184.486L91.2028 182.265L93.0426 173.561H79.4979L95.2688 128.261L95.3211 128.262L108.305 92.735ZM222.944 66.7443L208.248 66.3933L189.486 24.6476C188.752 23.0154 189.48 21.0977 191.113 20.3641C191.527 20.1779 191.976 20.0809 192.43 20.0794L255.786 19.8626C257.369 19.8572 258.725 20.9971 258.991 22.558L266.298 65.4148C275.182 67.645 281.76 75.6843 281.76 85.26C281.76 96.5597 272.6 105.72 261.3 105.72C250 105.72 240.84 96.5597 240.84 85.26C240.84 81.0863 242.09 77.2045 244.235 73.9684L243.252 74.9221C242.903 75.2599 242.507 75.5444 242.075 75.7663C240.031 76.8161 238.245 77.0921 236.733 76.5592C235.458 76.1101 234.659 75.3525 234.379 74.3224C233.461 75.1076 232.329 75.361 231.025 75.0653C229.608 74.744 228.717 73.9277 228.401 72.6719C227.344 73.3536 226.258 73.5091 225.175 73.1121C223.167 72.3759 222.044 70.2373 222.578 68.166L222.944 66.7443ZM40.0936 69.9739L42.0515 20.0109C42.1196 18.2722 43.5489 16.8978 45.289 16.8978H117.684C118 16.8978 118.314 16.9439 118.616 17.0346C120.33 17.5491 121.302 19.3555 120.788 21.0693L107.459 65.4713C106.758 67.8057 104.609 69.4043 102.172 69.4043H71.4656C71.4521 69.4043 71.4387 69.4043 71.4253 69.4045C71.5092 69.4572 71.5925 69.5135 71.675 69.5733C71.9072 69.7416 72.1148 69.9205 72.2974 70.1102C73.3291 71.1819 73.4606 72.833 72.6116 74.0546L66.7422 82.4995C66.7298 82.5173 66.7164 82.5344 66.7015 82.5503L65.0909 84.3029C64.0283 85.4591 62.4878 86.0077 60.9643 85.8187L58.1042 88.307C58.1676 88.9628 58.2 89.6276 58.2 90.3C58.2 101.6 49.0398 110.76 37.74 110.76C26.4403 110.76 17.28 101.6 17.28 90.3C17.28 79.0003 26.4403 69.84 37.74 69.84C38.536 69.84 39.3213 69.8855 40.0936 69.9739ZM198.749 173.701H168.762L171.469 182.382H186.593C186.858 182.382 187.073 182.596 187.073 182.862C187.073 183.127 186.858 183.342 186.593 183.342H170.458C170.425 183.342 170.393 183.338 170.362 183.332L162.49 185.415C160.589 185.918 159.045 187.304 158.341 189.14L157.836 190.456H200.96L197.034 179.107C196.947 178.856 197.08 178.583 197.33 178.496C197.581 178.409 197.854 178.542 197.941 178.793L201.976 190.456H204.09L198.749 173.701ZM124.738 173.561H94.0239L92.0809 182.753C92.0434 182.93 91.9092 183.071 91.734 183.117L83.0504 185.415C81.1491 185.918 79.6054 187.304 78.9012 189.14L78.3965 190.456H110.937L120.092 178.655C120.372 178.294 120.951 178.492 120.951 178.95V190.456H124.738V173.561ZM56.6221 81.1893L56.5568 81.2457C56.5001 81.1499 56.4428 81.0546 56.3848 80.96L56.6221 81.1893ZM218.673 126.215C218.033 126.204 217.495 126.25 216.954 126.414C216.234 126.631 215.712 127.017 215.422 127.627H219.145C219.016 127.11 218.859 126.639 218.673 126.215ZM226.02 127.627H229.603C229.071 125.578 228.074 123.974 226.612 122.799C225.856 122.193 222.793 121.186 217.518 119.822C219.77 120.692 221.412 121.382 222.447 121.891C224.273 122.791 225.457 124.718 226.02 127.627ZM120.788 74.8315C119.756 74.6393 118.678 74.8909 117.829 75.533L116.858 76.268C116.505 76.5348 116.225 76.886 116.043 77.2893L111.186 88.0744L113.292 88.092C113.904 85.3713 115.195 83.5701 117.171 82.7406C117.315 82.68 117.462 82.6214 117.611 82.5647L120.788 74.8315V74.8315ZM122.217 81.514C122.731 81.4579 123.262 81.4163 123.809 81.3891C123.746 80.7257 123.653 80.2071 123.532 79.8376C123.466 79.6345 123.394 79.4856 123.323 79.3925C123.279 79.3347 123.25 79.3141 123.234 79.3103C123.221 79.3072 123.208 79.305 123.195 79.3037C122.756 80.2966 122.43 81.0334 122.217 81.514ZM118.476 88.1353C118.165 87.3993 117.569 86.9397 116.734 86.6869C116.13 86.5042 115.533 86.4547 114.818 86.4687C114.602 86.9566 114.421 87.5001 114.276 88.1002L118.476 88.1353ZM48.3734 62.1248C50.3369 64.0637 50.414 65.9641 48.5208 67.5708C48.4116 67.6635 48.2729 67.6989 48.1414 67.6799L48.5359 72.9168C53.4935 76.0023 57.0347 81.1495 57.9605 87.1596L60.3238 85.1034C60.4129 84.9067 60.6274 84.7884 60.8492 84.8298C62.1429 85.0713 63.4796 84.6375 64.3841 83.6533L65.9726 81.9248L71.8233 73.5067C72.4111 72.661 72.32 71.5179 71.6057 70.7759C71.4636 70.6282 71.2989 70.4864 71.1116 70.3506C70.1735 69.6707 69.1506 69.5902 67.9748 70.1171L63.6848 75.8101C63.5253 76.0218 63.2243 76.0641 63.0126 75.9045C62.8009 75.745 62.7586 75.444 62.9181 75.2323L67.3226 69.3875C67.6525 68.2957 67.3848 67.4675 66.4999 66.8007C65.619 66.1369 64.7655 66.0653 63.8491 66.5715C63.8433 66.5747 63.8375 66.5778 63.8317 66.5807C63.8159 66.6235 63.7936 66.6647 63.7647 66.7031L59.3587 72.5501C59.1992 72.7618 58.8982 72.8041 58.6865 72.6446C58.4748 72.485 58.4325 72.1841 58.592 71.9723L62.998 66.1253C63.0437 66.0647 63.101 66.018 63.1644 65.9859C63.1804 65.9445 63.203 65.9034 63.2329 65.8636L69.5004 57.4967C69.9991 56.0497 69.8265 55.0748 69.0301 54.4603C68.1688 53.7957 67.0846 53.8356 65.6908 54.6387C65.6784 54.6459 65.6673 54.6552 65.6581 54.6664L54.3278 68.4191C54.0903 68.7074 53.629 68.6259 53.5047 68.2736C53.0495 66.9832 52.7152 66.0251 52.5016 65.3986C52.464 65.2882 52.4259 65.1717 52.3836 65.0383C52.3553 64.9488 52.3304 64.8689 52.2847 64.7213C51.905 63.4955 51.7052 63.0309 51.3668 62.7302C50.9156 62.3292 50.427 62.0363 49.8989 61.849C49.3586 61.6573 48.783 61.7812 48.3734 62.1248V62.1248ZM47.8576 62.9673C47.8224 63.1191 47.8101 63.2758 47.8214 63.4319L48.0669 66.6904C49.277 65.5654 49.2292 64.3909 47.8576 62.9673ZM65.9539 81.9516L65.9947 81.9007L65.9726 81.9248L65.9539 81.9516ZM67.8653 57.0374C68.0512 56.8484 68.3551 56.846 68.5441 57.0319C68.733 57.2178 68.7355 57.5217 68.5495 57.7107C67.8789 58.3922 67.0373 58.3855 66.2072 57.7391C65.3699 57.0871 65.1659 56.2862 65.7194 55.5273C65.8756 55.3132 66.1759 55.2662 66.39 55.4224C66.6042 55.5786 66.6512 55.8789 66.495 56.0931C66.2777 56.3909 66.337 56.6234 66.7971 56.9817C67.2644 57.3456 67.5596 57.348 67.8653 57.0374ZM37.74 109.8C48.5096 109.8 57.24 101.07 57.24 90.3C57.24 79.5304 48.5096 70.8 37.74 70.8C26.9705 70.8 18.24 79.5304 18.24 90.3C18.24 101.07 26.9705 109.8 37.74 109.8ZM44.3875 88.956C43.8292 89.1254 43.1725 88.9957 42.4487 88.5972C42.2164 88.4694 42.1318 88.1775 42.2597 87.9452C42.3875 87.713 42.6794 87.6284 42.9117 87.7562C43.504 88.0824 43.9251 88.1419 44.2277 87.9861L44.1401 87.4543C44.1086 87.2635 44.1947 87.0725 44.3584 86.9697L48.7957 84.1836L45.3783 83.2627C45.5918 84.0667 45.223 84.938 44.4511 85.3289C43.7386 85.6899 42.9721 85.9207 42.1542 86.0211C41.3364 86.1216 40.5368 86.083 39.7581 85.9052C39.2365 85.7861 38.7949 85.4411 38.5531 84.9637C38.1039 84.0769 38.4586 82.9938 39.3455 82.5446C40.0581 82.1837 40.8245 81.9529 41.6424 81.8524C42.1267 81.793 42.6045 81.7822 43.0755 81.8203C42.7022 80.8957 42.0939 80.1111 41.3367 79.5237L34.8518 82.4987L29.2616 83.4902C29.2311 83.6882 29.2153 83.8903 29.2153 84.0949V97.813C32.3775 98.5421 35.3722 98.7821 38.2005 98.5346C40.9975 98.2899 43.4731 97.6109 45.6305 96.4992L44.3875 88.956ZM42.4921 82.7581C42.2503 82.7593 42.0061 82.775 41.7594 82.8053C41.051 82.8923 40.3917 83.0908 39.7793 83.401C39.3654 83.6107 39.1999 84.1161 39.4095 84.5299C39.5223 84.7527 39.7284 84.9137 39.9718 84.9693C40.6412 85.1221 41.3288 85.1553 42.0372 85.0683C42.7457 84.9813 43.4049 84.7828 44.0173 84.4726C44.4312 84.2629 44.5968 83.7575 44.3871 83.3436C44.3461 83.2626 44.2927 83.1897 44.2297 83.1272C44.2378 83.167 44.2437 83.2079 44.2473 83.2494C44.2964 83.8106 43.9081 84.303 43.3799 84.3492C42.8517 84.3954 42.3837 83.978 42.3346 83.4168C42.3134 83.1742 42.3739 82.9445 42.4921 82.7581ZM44.1356 81.9336L50.1061 83.5424C50.5105 83.6514 50.5911 84.1897 50.2365 84.4124L45.1392 87.6131L46.6339 96.6841C46.6671 96.886 46.5688 97.0868 46.3888 97.1842C44.0415 98.4555 41.3386 99.2237 38.2841 99.491C35.2391 99.7574 32.0182 99.4796 28.6226 98.6595C28.4071 98.6075 28.2553 98.4146 28.2553 98.1929V84.0949C28.2553 82.082 29.4816 80.272 31.351 79.5257L35.5203 77.8611C35.9569 77.6867 36.4112 77.5602 36.8751 77.4838C40.0861 76.9547 43.1694 78.8787 44.1356 81.9336ZM38.2168 90.904C36.4028 91.8685 34.1504 91.1799 33.1858 89.3659C32.2213 87.5519 32.91 85.2994 34.724 84.3349C34.958 84.2104 35.2487 84.2993 35.3731 84.5334C35.4976 84.7674 35.4087 85.0581 35.1747 85.1825C33.8288 85.8981 33.3179 87.5693 34.0335 88.9152C34.7491 90.2611 36.4203 90.772 37.7661 90.0564C38.0002 89.9319 38.2909 90.0208 38.4153 90.2549C38.5398 90.4889 38.4509 90.7796 38.2168 90.904ZM261.3 104.76C272.07 104.76 280.8 96.0296 280.8 85.26C280.8 74.4904 272.07 65.76 261.3 65.76C250.53 65.76 241.8 74.4904 241.8 85.26C241.8 96.0296 250.53 104.76 261.3 104.76ZM258.059 78.2217C258.287 78.4482 258.398 78.7872 258.325 79.1308C258.212 79.6625 257.7 80.0041 257.182 79.8939C256.756 79.8034 256.458 79.4367 256.428 79.0143C256.253 79.1521 256.084 79.3059 255.92 79.4758C256.869 80.1237 257.845 80.3933 258.863 80.297C259.524 80.2345 260.131 80.0245 260.688 79.6631C260.434 79.2382 260.2 78.764 259.986 78.2406C259.529 78.126 259.065 78.0917 258.592 78.1365C258.41 78.1537 258.232 78.1821 258.059 78.2217ZM268.536 87.1063L268.073 92.2776C268.054 92.5002 267.883 92.6796 267.661 92.7103C265.09 93.0669 262.308 92.9263 259.319 92.2908C256.316 91.6526 254.063 90.7507 252.557 89.5709C252.42 89.4631 252.351 89.289 252.379 89.1164L253.123 84.5202C253.12 84.4534 253.131 84.3889 253.153 84.3296L253.398 82.8185L249.821 82.0582C249.478 81.9853 249.326 81.5815 249.537 81.3009L253.096 76.5488C255.453 73.4024 259.524 72.0631 263.288 73.1956L266.238 74.083C268.201 74.6737 269.479 76.5627 269.296 78.6047L269.044 81.4213L277.967 84.1696C278.017 84.1849 278.066 84.2036 278.114 84.2253C278.716 84.5012 278.981 85.2134 278.705 85.816L276.59 90.4352C276.571 90.4778 276.549 90.5191 276.525 90.5591C276.18 91.1254 275.442 91.3053 274.876 90.961L268.536 87.1063ZM258.847 73.9415C256.898 74.3552 255.113 75.4571 253.865 77.1243L250.755 81.2753L254.044 81.9745C254.295 82.0277 254.459 82.268 254.418 82.5206L254.315 83.1611C254.976 83.2652 255.492 83.3564 255.863 83.4354C256.099 83.4854 256.28 83.5312 256.412 83.5749C256.494 83.6021 256.562 83.6298 256.622 83.663C256.77 83.7453 256.876 83.8473 256.909 84.0509C256.948 84.2906 256.836 84.4548 256.681 84.5584C256.623 84.5971 256.563 84.6233 256.494 84.6461C256.407 84.6747 256.299 84.6992 256.162 84.7229C255.944 84.761 255.649 84.7977 255.28 84.835C255.192 84.8439 255.1 84.8528 255.004 84.8618C254.796 84.8811 254.351 84.9184 254.026 84.9456L253.373 88.9839C254.749 89.9804 256.799 90.7737 259.518 91.3518C262.256 91.9337 264.8 92.085 267.152 91.8078L268.001 82.3097C267.561 81.5228 266.781 80.917 265.811 80.7106C264.604 80.4541 263.416 80.8818 262.678 81.7255C262.082 81.3052 261.602 80.8801 261.238 80.4501C260.547 80.9051 259.784 81.1741 258.953 81.2527C257.53 81.3874 256.177 80.9382 254.914 79.9233C254.707 79.7563 254.675 79.4523 254.843 79.2458C255.85 78.0115 257.076 77.3157 258.502 77.1808C258.875 77.1455 259.243 77.1503 259.607 77.195C259.3 76.2413 259.046 75.1568 258.847 73.9415ZM234.34 72.9504C234.342 72.9159 234.347 72.881 234.356 72.8462L237.375 61.735C237.35 61.6838 237.333 61.6262 237.328 61.5631C237.202 60.1401 236.584 59.2902 235.439 58.9227C234.215 58.5298 233.261 58.8987 232.462 60.0936C232.41 60.171 232.343 60.2264 232.27 60.2613L229.317 71.5473C229.3 71.6127 229.271 71.6714 229.231 71.7215C229.234 71.7396 229.236 71.7582 229.237 71.7773C229.303 73.084 229.941 73.8352 231.237 74.1291C232.54 74.4243 233.545 74.0436 234.34 72.9504ZM235.234 73.2137C235.234 73.2184 235.234 73.2232 235.234 73.228C235.155 74.4077 235.727 75.1872 237.052 75.6537C238.283 76.0874 239.807 75.8518 241.636 74.9123C241.984 74.7337 242.303 74.5048 242.583 74.2328L245.032 71.8588L242.738 71.076C242.523 71.0025 242.388 70.7877 242.417 70.5617L243.26 63.8743C243.253 62.0513 242.66 61.0478 241.482 60.7246C240.413 60.4312 239.401 60.7153 238.403 61.6145L235.283 73.0979C235.272 73.1394 235.255 73.1782 235.234 73.2137ZM228.378 71.495C228.369 71.4332 228.372 71.3686 228.389 71.3043L231.444 59.6237C231.454 59.5853 231.469 59.5493 231.487 59.5159C231.124 58.3171 230.388 57.5663 229.254 57.2182C228.794 57.0769 228.368 57.02 227.974 57.0448C227.041 57.1035 226.251 57.7561 226.018 58.6616L223.507 68.4055C223.097 69.999 223.961 71.6444 225.506 72.2108C226.446 72.5556 227.386 72.3318 228.378 71.495ZM227.069 60.5852C226.981 61.1586 227.248 61.493 228.036 61.6973C228.821 61.9007 229.179 61.7573 229.334 61.2678C229.414 61.015 229.684 60.8749 229.936 60.9548C230.189 61.0346 230.329 61.3043 230.249 61.5571C229.923 62.5907 229.031 62.947 227.795 62.6266C226.563 62.3071 225.95 61.5415 226.12 60.439C226.161 60.177 226.406 59.9973 226.668 60.0377C226.93 60.078 227.109 60.3232 227.069 60.5852ZM233.188 62.5117C233.1 63.0851 233.368 63.4195 234.155 63.6238C234.94 63.8272 235.299 63.6839 235.453 63.1943C235.533 62.9416 235.803 62.8014 236.056 62.8813C236.308 62.9612 236.449 63.2309 236.369 63.4836C236.042 64.5172 235.15 64.8735 233.914 64.5531C232.682 64.2336 232.069 63.4681 232.239 62.3655C232.28 62.1035 232.525 61.9238 232.787 61.9642C233.049 62.0046 233.229 62.2497 233.188 62.5117ZM239.191 64.1193C239.103 64.6927 239.371 65.0271 240.159 65.2315C240.943 65.4348 241.302 65.2915 241.456 64.8019C241.536 64.5492 241.806 64.409 242.059 64.4889C242.311 64.5688 242.452 64.8385 242.372 65.0913C242.045 66.1248 241.153 66.4811 239.918 66.1607C238.686 65.8412 238.072 65.0757 238.242 63.9731C238.283 63.7111 238.528 63.5315 238.79 63.5718C239.052 63.6122 239.232 63.8573 239.191 64.1193ZM165.997 33.1843C163.875 32.0322 162.294 31.1693 161.252 30.5957C160.266 30.0525 159.077 29.3903 157.684 28.609C155.362 30.7013 154.468 33.739 155.009 37.7774L157.683 37.4492C157.946 37.4169 158.185 37.604 158.218 37.8671C158.25 38.1302 158.063 38.3697 157.8 38.402L154.661 38.7875C154.404 38.819 154.168 38.6414 154.128 38.3859C153.596 35.0155 153.982 32.2186 155.29 30.02L153.801 31.3596C153.442 32.1372 153.249 33.0044 153.264 33.9138L153.445 44.8209C155.723 45.6388 158.249 45.8785 161.031 45.537C163.807 45.196 166.206 44.5038 168.229 43.4628L167.353 39.429C167.287 39.1272 167.52 38.843 167.828 38.8472C167.954 38.8489 168.08 38.8421 168.207 38.8265C169.72 38.6408 170.795 37.2637 170.61 35.7508C170.424 34.2378 169.047 33.1619 167.534 33.3477C167.237 33.3842 166.952 33.467 166.688 33.5923C166.408 33.7246 166.079 33.5623 166.013 33.2603L166.006 33.2253C166.003 33.2116 166 33.1979 165.997 33.1843ZM160.605 27.0518C163.514 27.5014 165.977 29.6024 166.817 32.5188C167.012 32.4615 167.212 32.42 167.417 32.3948C169.456 32.1445 171.312 33.5946 171.562 35.6338C171.809 37.6445 170.403 39.4771 168.409 39.768L169.244 43.615C169.289 43.8234 169.192 44.0367 169.004 44.1385C166.805 45.3341 164.185 46.1169 161.148 46.4898C158.092 46.865 155.307 46.571 152.798 45.6044C152.616 45.534 152.494 45.36 152.491 45.1645L152.304 33.9298C152.26 31.3011 153.714 28.9746 155.902 27.7994C154.471 27.3158 153.58 25.8371 153.874 24.3117C154.032 23.4891 154.512 22.7896 155.176 22.3433C154.273 21.8124 153.746 20.7613 153.934 19.6678C154.125 18.5579 155.01 17.6978 156.124 17.5388L158.004 17.2708C159.353 17.0785 160.602 18.0161 160.794 19.3649C160.795 19.3677 160.795 19.3705 160.796 19.3734C160.921 20.2719 160.572 21.131 159.937 21.693C160.982 22.0314 161.791 22.9485 161.936 24.1107C161.937 24.1138 161.937 24.1169 161.937 24.1199C162.081 25.305 161.534 26.4202 160.605 27.0518ZM158.202 33.515C158.287 33.4833 158.378 33.4639 158.472 33.459C159.002 33.4312 159.455 33.8648 159.484 34.4273C159.498 34.6892 159.418 34.9329 159.274 35.1214C159.604 35.1057 159.93 35.0484 160.253 34.9496C161.236 34.6491 162.028 34.0149 162.638 33.0282C161.581 32.5516 160.569 32.4687 159.586 32.7693C159.073 32.9261 158.612 33.1738 158.202 33.515ZM157.639 34.0797C157.484 34.2658 157.338 34.4694 157.201 34.6907C157.348 34.7572 157.495 34.8159 157.64 34.8671C157.599 34.762 157.573 34.6479 157.567 34.5278C157.559 34.369 157.585 34.2169 157.639 34.0797ZM160.533 35.8677C159.158 36.2882 157.739 36.0992 156.304 35.3158C156.075 35.1907 155.988 34.9055 156.108 34.6738C156.86 33.2217 157.93 32.2717 159.305 31.8512C160.681 31.4307 162.1 31.6198 163.535 32.4031C163.764 32.5282 163.851 32.8134 163.731 33.0452C162.979 34.4972 161.909 35.4472 160.533 35.8677ZM156.112 40.0661C155.861 39.98 155.728 39.7069 155.814 39.4562C155.9 39.2055 156.173 39.0721 156.424 39.1582C157.019 39.3626 157.711 39.2553 158.524 38.8067C158.756 38.6787 159.048 38.763 159.176 38.9951C159.305 39.2272 159.22 39.5192 158.988 39.6472C157.955 40.2176 156.988 40.3672 156.112 40.0661ZM200.206 27.7985L212.059 53.0153C212.138 53.1826 212.306 53.2899 212.491 53.291L256.239 53.5708C256.542 53.5727 256.771 53.2971 256.714 52.9998L251.779 27.4398C251.735 27.2137 251.537 27.0505 251.307 27.0508L200.639 27.1143C200.288 27.1147 200.056 27.4804 200.206 27.7985ZM250.911 28.0113L255.66 52.6071L212.799 52.333L201.396 28.0733L250.911 28.0113ZM230.03 47.9508C231.369 47.9508 233.092 47.42 234.157 46.7689C236.174 45.5356 237.05 43.4682 237.05 40.9308C237.05 39.354 236.667 37.7022 235.789 36.5303C234.509 34.8207 232.33 33.9108 230.03 33.9108C227.745 33.9108 225.774 35.1286 224.493 36.8186C223.599 37.9964 223.01 39.3385 223.01 40.9308C223.01 43.0443 224.12 44.8797 225.598 46.1667C226.831 47.2406 228.266 47.9508 230.03 47.9508ZM52.92 31.2C52.191 31.2 51.6 31.791 51.6 32.52C51.6 33.249 52.191 33.84 52.92 33.84H102.48C103.209 33.84 103.8 33.249 103.8 32.52C103.8 31.791 103.209 31.2 102.48 31.2H52.92ZM53.16 40.32C52.431 40.32 51.84 40.911 51.84 41.64C51.84 42.369 52.431 42.96 53.16 42.96H72.2979C73.0269 42.96 73.6179 42.369 73.6179 41.64C73.6179 40.911 73.0269 40.32 72.2979 40.32H53.16ZM78.72 40.32C77.991 40.32 77.4 40.911 77.4 41.64C77.4 42.369 77.991 42.96 78.72 42.96H88.1716C88.9006 42.96 89.4916 42.369 89.4916 41.64C89.4916 40.911 88.9006 40.32 88.1716 40.32H78.72ZM94.08 40.32C93.351 40.32 92.76 40.911 92.76 41.64C92.76 42.369 93.351 42.96 94.08 42.96H101.144C101.873 42.96 102.464 42.369 102.464 41.64C102.464 40.911 101.873 40.32 101.144 40.32H94.08Z" fill="#001343"/>
<path fill-rule="evenodd" clip-rule="evenodd" d="M142.674 88.3009L140.869 83.9652C139.661 81.0637 137.375 78.7769 134.533 77.5545L137.992 51.0007C138.357 48.1973 140.91 46.2096 143.717 46.5432L151.92 47.5178L152.398 44.8779L168.939 42.4605L173.67 50.1019L183.776 51.3027C185.666 51.5272 187.315 52.6891 188.161 54.3928L218.393 115.209H195.183L186.593 88.2689L142.674 88.3009ZM82.74 51.84H95.94C97.7625 51.84 99.24 53.3175 99.24 55.14C99.24 56.9625 97.7625 58.44 95.94 58.44H82.74C80.9175 58.44 79.44 56.9625 79.44 55.14C79.44 53.3175 80.9175 51.84 82.74 51.84ZM228.24 38.2835C228.24 38.2228 230.12 38.953 233.88 40.4742L229.246 44.4C228.575 40.383 228.24 38.3442 228.24 38.2835ZM186.817 87.6143L181.668 68.2462C181.6 67.99 181.337 67.8375 181.081 67.9056C180.824 67.9737 180.672 68.2366 180.74 68.4928L185.889 87.8609C185.957 88.1171 186.22 88.2696 186.476 88.2015C186.732 88.1334 186.885 87.8704 186.817 87.6143ZM36.0872 96.7302C36.2767 96.7329 36.4663 96.731 36.6557 96.7247L48.8109 96.3191C48.9767 96.3136 49.1412 96.3511 49.2882 96.4281C49.7579 96.674 49.9393 97.2542 49.6934 97.7239L47.992 100.973L51.868 103.737C50.7708 104.886 49.7605 105.766 48.8371 106.376C48.2481 106.765 47.6895 107.077 47.3029 107.305C45.4652 108.39 43.6007 108.948 42.2702 109.276C40.7135 109.66 39.1171 109.814 37.3335 109.814C37.0064 109.814 36.0158 109.752 35.6978 109.718C33.2094 109.457 30.3564 108.756 27.184 106.728C26.6011 106.356 25.5142 105.545 24.5237 104.643C24.3428 104.478 24.0668 104.206 23.6955 103.826L27.5639 100.973L26.3231 97.928C26.2745 97.8088 26.2504 97.681 26.2522 97.5523C26.2597 97.0221 26.6955 96.5984 27.2256 96.6058L36.0872 96.7302ZM259.696 89.7024L271.195 90.2164C271.725 90.2401 272.135 90.6886 272.111 91.2183C272.106 91.3329 272.081 91.4456 272.036 91.5512L271.262 93.3704C270.465 95.244 270.869 97.4127 272.288 98.8735L273.695 100.323C270.17 103.308 266.038 104.8 261.3 104.8C259.624 104.8 257.613 104.503 255.816 103.987C254.84 103.707 253.882 103.31 253.1 102.952C252.216 102.547 251.208 101.996 250.118 101.242C249.883 101.079 249.526 100.808 249.047 100.427C250.337 98.5141 250.777 96.1528 250.264 93.9036L249.278 89.5803C249.16 89.0634 249.483 88.5488 250 88.4308C250.115 88.4046 250.234 88.3998 250.35 88.4166L258.523 89.5921C258.912 89.6481 259.303 89.6849 259.696 89.7024Z" fill="#4E7FFF"/>
</svg>
