<svg width="300" height="207" viewBox="0 0 300 207" fill="none" xmlns="http://www.w3.org/2000/svg">
<path fill-rule="evenodd" clip-rule="evenodd" d="M127.271 38.1199L117.9 71.2399L135.48 65.0355L127.743 38.1199H133.664L135.124 43.4604H148.535L163.961 54.699L184.01 41.7357L195.936 59.1227L171.803 77.3226L98.2407 100.661L96.5279 105.454L86.5803 100.516L84.2624 105.282C83.0988 105.2 81.7884 106.317 80.7918 107.456L75.4272 104.38L75.4298 104.384L71.6968 108.993L70.077 114.565L76.2589 118.214L76.0647 118.848L75.8026 119.549C75.253 120.741 75.6342 122.156 76.708 122.91C76.8866 123.036 77.0836 123.151 77.2989 123.256C78.5394 123.86 79.7819 123.73 81.0264 122.866C80.7835 124.365 81.2905 125.411 82.5474 126.003C83.63 126.513 84.6844 126.364 85.7107 125.554C85.7958 125.49 85.8807 125.42 85.9654 125.346C86.0158 126.911 86.6073 127.99 87.7398 128.585C87.891 128.664 88.0428 128.727 88.1953 128.775L82.2122 145.52L46.44 123.732L66.2696 114.699L64.255 114.725L58.8815 117.13L55.3848 112.616L50.3283 109.959L51.7658 104.254L50.8338 98.5356L56.123 95.9356L60.0174 91.4619L65.1755 93.925L70.9637 94.0646L72.1064 99.736L74.9483 103.711L73.9546 102.234L75.4244 104.29C75.5786 104.505 75.8784 104.555 76.0941 104.401C76.3097 104.247 76.3595 103.947 76.2053 103.731L72.9418 99.1671L71.8193 93.5965C71.775 93.3767 71.5845 93.2169 71.3603 93.2115L67.9711 93.1297L103.451 41.4799L118.312 44.3511L118.998 42.6454L120.242 38.1199H127.271ZM54.9462 107.878L58.0661 109.529L60.2351 112.312C60.3702 112.485 60.6061 112.545 60.8073 112.456L64.105 111.002L67.673 110.98C67.8863 110.979 68.0732 110.837 68.1317 110.632L69.1198 107.164L71.3994 104.348C71.5356 104.18 71.5423 103.941 71.4158 103.766L69.3522 100.9L68.6249 97.4161C68.5796 97.199 68.3916 97.0413 68.17 97.0344L64.6092 96.9238L61.4268 95.3907C61.232 95.2968 60.9985 95.3448 60.8565 95.5079L58.4769 98.24L55.2304 99.8146C55.0383 99.9077 54.9309 100.117 54.9667 100.327L55.5649 103.841L54.7046 107.339C54.652 107.552 54.7516 107.775 54.9462 107.878ZM58.606 108.728L55.7263 107.204L56.5209 103.974C56.5366 103.91 56.5391 103.844 56.528 103.779L55.9735 100.521L58.984 99.061C59.0421 99.0328 59.094 98.9931 59.1365 98.9444L61.34 96.4144L64.2842 97.8328C64.3447 97.8619 64.4106 97.8781 64.4777 97.8801L67.7624 97.9822L68.4333 101.196C68.447 101.262 68.4744 101.324 68.5137 101.379L70.4225 104.029L68.312 106.636C68.2713 106.687 68.2412 106.745 68.2234 106.807L67.3071 110.023L63.9996 110.043C63.9339 110.043 63.869 110.057 63.8088 110.084L60.7623 111.427L58.7601 108.857C58.7184 108.804 58.6659 108.76 58.606 108.728ZM170.632 19.0399L172.26 25.0456L176.28 26.5872L172.26 28.5461L170.4 32.9599L168.759 28.5461L164.52 26.7081L168.759 25.0456L170.632 19.0399ZM185.935 19.0399L187.579 25.0456L191.64 26.5872L187.579 28.5461L185.7 32.9599L184.043 28.5461L179.76 26.7081L184.043 25.0456L185.935 19.0399ZM201.175 19.0399L202.819 25.0456L206.88 26.5872L202.819 28.5461L200.94 32.9599L199.283 28.5461L195 26.7081L199.283 25.0456L201.175 19.0399Z" fill="#4E7FFF"/>
<path fill-rule="evenodd" clip-rule="evenodd" d="M121.154 28.7682L120.856 29.0211C120.764 29.0998 120.645 29.1404 120.523 29.1349C118.557 29.0444 117.582 29.6995 117.398 31.151C117.25 32.3195 117.631 33.1919 118.577 33.6802C118.861 33.8268 119.45 34.0731 120.331 34.4122C120.536 34.4915 120.662 34.7007 120.634 34.9195L120.238 38.0989L120.242 38.1199L120.229 38.1694L120.228 38.1793C120.222 38.2231 120.211 38.2648 120.195 38.3036L119.807 39.8362C119.272 39.8474 118.747 39.7024 118.298 39.4259C118.202 40.356 117.55 41.1767 116.594 41.442C115.618 41.7131 114.578 41.3252 114.017 40.4808L113.052 39.027C112.383 38.019 112.658 36.6594 113.666 35.9902C113.678 35.9824 113.69 35.9747 113.702 35.9671C114.397 35.5248 115.238 35.4841 115.946 35.7917C115.836 34.9143 116.182 34.0134 116.905 33.4396C116.48 32.7781 116.329 31.9528 116.446 31.0302C116.684 29.1457 117.98 28.1772 120.164 28.1673L120.41 16.5213L126.452 18.0944C126.529 18.1145 126.609 18.1151 126.687 18.0962L133.104 16.5257L133.309 27.9929L133.952 32.7536C134.317 33.1963 134.529 33.7391 134.568 34.3011C135.358 33.8462 136.379 33.8864 137.142 34.4819C137.935 35.101 138.237 36.1627 137.887 37.1063L137.231 38.8731C136.817 39.9904 135.575 40.5602 134.458 40.1457C134.443 40.1401 134.428 40.1344 134.413 40.1285C134.319 40.0914 134.229 40.0489 134.143 40.0017C133.899 39.2154 133.739 38.5881 133.664 38.1199C133.649 38.0255 133.635 37.8139 133.623 37.4849L132.273 27.4939L131.851 27.0982C131.791 27.0435 131.731 26.9891 131.671 26.9351C132.235 28.4084 132.482 30.1443 132.414 32.1363C132.406 32.3949 132.193 32.5999 131.935 32.5999H129.106C128.841 32.5999 128.626 32.385 128.626 32.1199C128.626 31.8548 128.841 31.6399 129.106 31.6399H131.465C131.495 27.9894 130.366 25.3928 128.077 23.7948C126.926 24.6365 125.94 25.3515 125.122 25.9399C124.251 26.5656 122.929 27.5083 121.154 28.7682ZM198.557 44.8948C198.556 44.9027 198.555 44.9108 198.554 44.9188C198.212 46.9696 199.031 48.0394 201.177 48.3092L205.988 44.2724C206.03 44.2374 206.076 44.212 206.125 44.196C206.131 44.1846 206.138 44.1732 206.145 44.162C206.759 43.2252 206.734 42.4052 206.077 41.5942C205.462 40.8348 204.744 40.5845 203.849 40.8128L198.557 44.8948ZM197.68 44.5748C197.715 44.5095 197.764 44.4483 197.828 44.397L203.384 40.1103C203.397 40.0967 203.412 40.0836 203.427 40.0709L210.756 34.1021C211.511 32.9438 211.575 32.0538 211.015 31.3448C210.408 30.578 209.451 30.3794 208.055 30.7818C208.043 30.7854 208.031 30.7912 208.02 30.7989L195.075 40.3886C194.804 40.5897 194.419 40.419 194.388 40.0841C194.274 38.8574 194.194 37.9473 194.145 37.3533C194.137 37.2486 194.129 37.1386 194.122 37.0127C194.116 36.9283 194.112 36.8531 194.105 36.7142C194.044 35.5602 193.971 35.1108 193.742 34.7749C193.436 34.3269 193.073 33.9655 192.653 33.6879C192.006 33.2611 191.133 33.4406 190.701 34.0888C190.594 34.251 190.52 34.4337 190.486 34.6251L189.042 42.9332C189.049 42.9414 189.056 42.95 189.063 42.9589C189.224 43.1696 189.184 43.4709 188.973 43.6317L186.891 45.2214C186.681 45.3823 186.379 45.3419 186.219 45.1312C186.209 45.1183 186.2 45.1051 186.191 45.0915L185.209 45.8081L186.191 45.0915C186.063 44.8842 186.111 44.6095 186.309 44.4584L188.146 43.0554C188.147 43.0382 188.149 43.0208 188.152 43.0033L188.75 39.5599H165.84C158.55 39.5599 152.64 33.6501 152.64 26.3599C152.64 19.0698 158.55 13.1599 165.84 13.1599H221.52C228.81 13.1599 234.72 19.0698 234.72 26.3599C234.72 29.7735 233.424 32.8844 231.298 35.2277H242.413H267.918L269.88 125.708L203.383 114.918L199.486 57.2273C198.673 57.4002 197.823 57.3374 197.037 57.0373L195.42 58.0001C195.207 58.1092 194.946 58.0255 194.838 57.8131C194.73 57.6007 194.816 57.34 195.029 57.2309L196.635 56.2737C196.757 56.1208 196.97 56.0636 197.155 56.1475C198.233 56.6374 199.498 56.5458 200.506 55.8797L202.277 54.7098L203.907 53.2837C201.595 52.8738 200.516 51.4765 200.807 49.2257C198.305 48.8222 197.188 47.2789 197.607 44.7611C197.618 44.6923 197.644 44.6294 197.68 44.5748ZM201.78 48.9002C201.801 48.9696 201.807 49.0448 201.793 49.1212C201.448 51.1316 202.298 52.1641 204.531 52.4026C204.63 52.4132 204.718 52.4528 204.789 52.5122L209.252 48.6064C209.953 47.9932 210.126 46.9737 209.665 46.1709C209.573 46.0111 209.46 45.8516 209.327 45.6924C208.652 44.8909 207.769 44.6015 206.614 44.8165C206.592 44.8531 206.563 44.8867 206.528 44.9159L201.78 48.9002ZM206.599 38.5999H221.52C228.28 38.5999 233.76 33.1199 233.76 26.3599C233.76 19.6 228.28 14.1199 221.52 14.1199H165.84C159.08 14.1199 153.6 19.6 153.6 26.3599C153.6 33.1199 159.08 38.5999 165.84 38.5999H188.917L189.634 34.4809C189.689 34.1703 189.807 33.8753 189.981 33.6132C190.678 32.5661 192.089 32.2762 193.133 32.9656C193.648 33.3056 194.09 33.7462 194.458 34.2845C194.815 34.807 194.899 35.3272 194.97 36.6632C194.977 36.8003 194.981 36.8742 194.986 36.9561C194.993 37.0762 195 37.1802 195.008 37.278C195.036 37.6152 195.074 38.0559 195.122 38.5999H196.041L207.507 30.1054C207.601 30.0357 207.707 29.9834 207.819 29.951C209.525 29.4594 210.847 29.7336 211.695 30.8061C212.527 31.8573 212.418 33.1632 211.44 34.6322C211.416 34.6686 211.386 34.7011 211.352 34.7287L206.599 38.5999ZM161.697 142.62L157.328 142.88L142.847 106.614L127.615 132.132C128.851 133.668 129.061 136.204 128.04 138.047L128.037 138.052L126.274 141.23C125.222 143.124 122.711 144.229 120.647 143.805L104.51 170.839L102.052 177.547L110.252 179.58C112.495 180.136 114.325 181.752 115.156 183.908L115.556 184.949L126.943 185.024L120.835 171.611H159.734L153.84 156.32H161.287L161.697 142.62ZM191.459 140.852L196.4 148.667L204.932 150.782C207.175 151.338 209.005 152.953 209.836 155.11L210.328 156.387C210.358 156.465 210.366 156.544 210.357 156.619L215.1 174.105L159.887 197.163H75.0498L68.3488 184.64L70.4012 184.653L74.799 170.84H72.96L88.0388 129.187C87.8679 129.132 87.6976 129.06 87.5279 128.971C86.5059 128.434 85.8674 127.55 85.6158 126.353C85.5667 126.328 85.5237 126.295 85.4874 126.257C84.4787 126.847 83.4198 126.901 82.3539 126.398C81.1791 125.845 80.5553 124.92 80.5027 123.688C79.376 124.209 78.2297 124.199 77.0999 123.649C76.8622 123.533 76.6432 123.405 76.4432 123.264C75.1847 122.38 74.7348 120.725 75.3702 119.326L77.0308 114.882C77.0361 114.868 77.0421 114.854 77.0488 114.84C77.0845 114.767 77.2165 114.425 77.4551 113.789C77.4719 113.744 78.0483 112.202 78.2397 111.693C78.3061 111.517 78.3699 111.348 78.4318 111.185C79.1749 109.224 79.6601 108.028 79.9124 107.598C80.0466 107.369 80.3407 107.293 80.5694 107.427C80.798 107.561 80.8746 107.855 80.7404 108.084C80.5295 108.443 80.0421 109.645 79.3295 111.525C79.2678 111.688 79.2043 111.856 79.1381 112.031C78.9472 112.538 78.3711 114.08 78.354 114.126C78.1092 114.779 77.9843 115.103 77.9232 115.236L76.2635 119.678C76.2593 119.689 76.2547 119.7 76.2497 119.711C75.7972 120.692 76.111 121.858 76.9952 122.479C77.1524 122.589 77.3274 122.692 77.5203 122.786C78.5999 123.312 79.6581 123.201 80.7638 122.433C80.7778 122.423 80.7921 122.414 80.8064 122.406L83.368 116.031C83.4668 115.785 83.7464 115.665 83.9924 115.764C84.2383 115.863 84.3576 116.142 84.2588 116.388L81.4708 123.328C81.4682 123.334 81.4655 123.341 81.4627 123.347C81.4074 124.392 81.8321 125.091 82.7633 125.53C83.7524 125.996 84.6869 125.815 85.6554 124.944C85.6852 124.917 85.7168 124.895 85.7495 124.877L88.2823 118.749C88.3836 118.504 88.6643 118.388 88.9093 118.489C89.1543 118.59 89.2708 118.871 89.1695 119.116L86.477 125.63C86.5881 126.842 87.0853 127.654 87.974 128.121C88.9436 128.629 89.9446 128.343 91.0692 127.163L95.7122 116.2C95.8224 115.94 96.1326 115.831 96.3815 115.964L101.354 118.639C101.344 117.535 100.778 116.544 99.4688 115.005C99.3763 114.896 99.2777 114.783 99.1675 114.658C99.1749 114.666 98.1168 113.487 97.7747 113.089C97.178 112.395 96.6408 111.716 96.0915 110.943C95.9987 110.813 95.977 110.645 96.0337 110.495L97.692 106.119C97.696 106.108 97.7003 106.098 97.705 106.088L96.3356 105.411L106.985 75.0695L164.028 54.6799L193.32 140.742L191.459 140.852ZM103.487 170.84H75.8065L71.4066 184.66L74.5872 184.681L78.3545 175.399C78.5528 174.911 79.2793 175.053 79.2793 175.58V184.711L105.001 184.88H114.501L114.26 184.253C113.542 182.389 111.96 180.992 110.021 180.512L101.301 178.35C101.024 178.281 100.868 177.987 100.966 177.719L103.487 170.84ZM162.659 142.563L162.255 156.08H165.449L165.888 145.557C165.906 145.112 166.467 144.93 166.743 145.278L175.316 156.08H209.181L208.94 155.455C208.222 153.591 206.64 152.194 204.701 151.714L195.982 149.553C195.862 149.523 195.758 149.448 195.691 149.343L190.365 140.918L162.659 142.563ZM75.6205 184.688L78.3193 184.705V178.039L75.6205 184.688ZM166.4 156.32H174.281L166.793 146.885L166.4 156.32ZM54.4936 112.148L55.3848 112.616L58.8815 117.13L64.255 114.725L66.7829 114.692L77.3851 146.347C77.5098 146.719 77.4444 147.129 77.2099 147.444C76.8143 147.976 76.0626 148.086 75.5309 147.691L68.2292 142.258L65.6114 152.001C65.4933 152.44 65.137 152.775 64.6912 152.865C64.0417 152.997 63.4083 152.578 63.2764 151.928L60.1485 136.517L55.807 161.14C55.7397 161.522 55.4921 161.848 55.1422 162.015C54.5441 162.3 53.8278 162.047 53.5423 161.449L45.48 144.56L27.6207 150.522C27.2413 150.649 26.8236 150.578 26.5071 150.334C25.9826 149.928 25.886 149.175 26.2911 148.65L54.4936 112.148ZM211.769 78.4411C214.425 87.2518 239.329 103.812 253.284 85.1659C267.163 66.6211 252.942 50.0829 238.961 46.5444C224.981 43.006 205.631 58.0733 211.769 78.4411ZM215.818 97.4424C215.804 97.4407 215.79 97.4392 215.775 97.4379C214.945 97.3619 214.211 97.9731 214.135 98.8031C214.056 99.6639 214.677 100.431 215.535 100.535L252.766 105.014C252.78 105.016 252.794 105.017 252.808 105.019C253.638 105.095 254.373 104.483 254.449 103.653C254.528 102.793 253.907 102.025 253.049 101.922L215.818 97.4424ZM216.075 104.787C216.052 104.784 216.029 104.781 216.007 104.779C215.185 104.704 214.458 105.31 214.383 106.132C214.304 107.004 214.924 107.784 215.791 107.903L235.212 110.573C235.234 110.577 235.257 110.579 235.28 110.581C236.102 110.656 236.828 110.05 236.903 109.229C236.982 108.357 236.362 107.577 235.495 107.457L216.075 104.787ZM241.932 108.302C241.907 108.299 241.882 108.296 241.857 108.293C241.04 108.22 240.32 108.822 240.246 109.638C240.168 110.51 240.786 111.29 241.653 111.413L251.461 112.804C251.486 112.808 251.511 112.811 251.537 112.813C252.353 112.886 253.074 112.284 253.147 111.468C253.225 110.596 252.607 109.816 251.74 109.693L241.932 108.302ZM224.1 56.9651L245.13 57.5125C245.716 57.2913 246.39 57.2628 247.092 57.416C247.832 57.5777 248.527 57.9305 248.89 58.3569C249.252 58.7813 249.501 59.2594 249.629 59.8012C249.8 60.5303 249.73 61.3155 249.42 62.1351C249.016 63.2049 247.921 63.7819 246.514 63.7995C245.678 63.81 244.832 63.6186 244.169 63.2745C243.25 66.7093 242.447 69.341 241.758 71.1697C240.725 73.912 238.905 75.0916 236.299 74.7088V81.5385L239.336 83.0221C240.035 83.3636 240.653 83.8509 241.148 84.451C241.347 84.6923 241.313 85.0494 241.072 85.2486C240.972 85.331 240.847 85.3768 240.718 85.3782C237.947 85.4081 235.722 85.3672 234.043 85.2555C232.288 85.1387 230.275 84.78 228.004 84.1794C227.739 84.1092 227.58 83.8369 227.65 83.5713C227.661 83.532 227.676 83.4942 227.696 83.4586C227.89 83.1045 228.221 82.8452 228.612 82.7407L233.104 81.5385L233.884 74.7088C230.342 74.363 228.173 73.125 227.378 70.9948C226.857 69.601 226.205 67.1169 225.419 63.5426C224.864 63.8608 224.167 64.0296 223.382 64.0395C222.105 64.0555 220.806 63.6418 220.053 62.9427C219.206 62.1565 219.031 60.9667 219.481 59.7148C219.827 58.7536 220.52 57.8417 221.294 57.3384C222.051 56.8463 223.009 56.7245 224.02 56.9466C224.047 56.9526 224.074 56.9587 224.1 56.9651ZM244.901 60.4626C244.85 60.6639 244.799 60.863 244.749 61.0598C244.75 61.1924 244.788 61.2868 244.852 61.3439C245.146 61.6045 245.87 61.8141 246.557 61.8058C247.199 61.7981 247.601 61.6201 247.681 61.4179C247.858 60.9672 247.896 60.5879 247.816 60.2602C247.762 60.0402 247.657 59.8457 247.494 59.661C247.493 59.6599 247.491 59.6584 247.489 59.6567C247.479 59.6483 247.464 59.6378 247.445 59.626C247.4 59.5972 247.34 59.5654 247.271 59.534C247.115 59.4628 246.929 59.4015 246.748 59.3635C246.315 59.2723 245.95 59.3101 245.729 59.4476C245.419 59.6402 245.088 60.0448 244.901 60.4626ZM224.253 59.3697C224.241 59.3603 224.225 59.3486 224.205 59.3354C224.155 59.3033 224.09 59.2679 224.014 59.2329C223.843 59.1535 223.64 59.0851 223.442 59.0427C222.968 58.9411 222.569 58.9832 222.327 59.1365C221.956 59.3718 221.556 59.891 221.367 60.4023C221.203 60.8469 221.231 61.1273 221.368 61.2509C221.689 61.5415 222.481 61.7752 223.233 61.766C223.936 61.7573 224.376 61.5588 224.462 61.3335C224.656 60.8309 224.698 60.4079 224.61 60.0426C224.551 59.7973 224.436 59.5804 224.259 59.3744C224.257 59.3732 224.255 59.3716 224.253 59.3697ZM210.185 26.2612L214.21 24.6828L216.014 18.897C216.157 18.4386 216.81 18.4509 216.936 18.9144L218.499 24.6847L222.292 26.139C222.684 26.2893 222.708 26.8348 222.33 27.0187L218.472 28.8986L216.682 33.1463C216.514 33.547 215.942 33.5347 215.79 33.1272L214.221 28.9051L210.169 27.1485C209.776 26.9781 209.786 26.4175 210.185 26.2612ZM217.637 25.1712L216.44 20.7558L215.058 25.1885C215.014 25.3275 214.91 25.4393 214.775 25.4925L211.618 26.7303L214.79 28.1057C214.91 28.1577 215.004 28.2563 215.049 28.3788L216.268 31.6574L217.657 28.3597C217.703 28.2526 217.785 28.1655 217.89 28.1146L220.916 26.6397L217.928 25.4938C217.785 25.4389 217.677 25.3191 217.637 25.1712ZM92.176 127.012L114.438 139.335C114.473 139.346 114.508 139.361 114.541 139.38L114.972 139.631L120.311 142.586C120.323 142.593 120.334 142.599 120.346 142.606C119.313 141.063 119.476 139.122 120.781 136.857C122.112 134.547 123.247 132.765 124.187 131.509C124.239 131.44 124.305 131.389 124.378 131.357L102.289 119.129C102.277 119.248 102.261 119.368 102.24 119.489C102.183 119.812 101.828 119.984 101.54 119.829L96.3907 117.059L92.176 127.012ZM125.046 131.727C125.064 131.849 125.035 131.977 124.956 132.084C124.042 133.305 122.927 135.057 121.613 137.337C120.444 139.364 120.332 140.95 121.216 142.174C121.978 142.081 122.553 141.784 122.966 141.285C124.307 139.665 125.233 138.108 125.59 136.865C125.937 135.653 125.73 134.87 124.979 134.485C124.744 134.364 124.651 134.075 124.772 133.839C124.893 133.603 125.182 133.51 125.418 133.631C126.639 134.258 126.974 135.521 126.513 137.13C126.114 138.52 125.124 140.184 123.705 141.897C123.356 142.319 122.926 142.635 122.421 142.847C123.646 142.594 124.842 141.83 125.434 140.764L127.198 137.586L127.2 137.582C127.973 136.185 127.872 134.277 127.079 133.03L127.053 133.074C126.764 132.761 126.42 132.487 126.026 132.269L125.046 131.727ZM51.9781 104.268C52.2095 104.397 52.2923 104.69 52.1629 104.921C52.0336 105.152 51.7412 105.235 51.5098 105.106L40.7968 99.1179C38.1876 97.6735 37.2433 94.3874 38.6877 91.7782L38.6907 91.7729L39.6392 90.0639C41.0854 87.4584 44.3689 86.5169 46.975 87.9596L57.3391 93.6651C57.5713 93.793 57.6559 94.0849 57.5281 94.3171C57.4002 94.5493 57.1083 94.634 56.8761 94.5061L46.5111 88.8C44.3674 87.6134 41.6677 88.3875 40.4786 90.5298L39.5301 92.2388L39.5276 92.2431C38.34 94.3885 39.1164 97.0904 41.2635 98.279L51.9781 104.268ZM142.367 105.565L119.687 109.045C119.425 109.086 119.245 109.331 119.286 109.593C119.326 109.855 119.571 110.035 119.833 109.994L142.513 106.514C142.775 106.474 142.955 106.229 142.914 105.967C142.874 105.705 142.629 105.525 142.367 105.565ZM202.255 54.7292L202.302 54.6935L202.277 54.7098L202.255 54.7292ZM201.774 46.3298C201.978 46.1606 202.28 46.189 202.45 46.3931C202.619 46.5972 202.59 46.8998 202.386 47.0689C201.631 47.6948 200.761 47.5964 199.94 46.8487C199.109 46.0905 198.95 45.2474 199.594 44.5214C199.77 44.3231 200.073 44.3049 200.272 44.4808C200.47 44.6567 200.488 44.9601 200.312 45.1584C200.06 45.4432 200.108 45.7028 200.587 46.1392C201.078 46.5861 201.418 46.6246 201.774 46.3298ZM205.124 50.2977C205.324 50.1234 205.627 50.144 205.802 50.3438C205.976 50.5436 205.955 50.8468 205.756 51.0211C205.024 51.6592 204.172 51.5577 203.382 50.8003C202.593 50.0429 202.445 49.2121 203.052 48.4907C203.223 48.2879 203.526 48.262 203.729 48.4328C203.931 48.6036 203.957 48.9064 203.786 49.1092C203.543 49.3985 203.591 49.6704 204.047 50.1076C204.503 50.5448 204.801 50.5802 205.124 50.2977ZM128.057 28.1525C127.683 27.9277 127.281 27.778 126.848 27.7015C125.963 27.5451 125.094 27.7193 124.225 28.2361C124.865 29.0199 125.623 29.4817 126.508 29.6381C126.791 29.6882 127.073 29.7044 127.354 29.6862C127.227 29.5379 127.144 29.3454 127.129 29.1308C127.094 28.6233 127.451 28.1848 127.928 28.1515C127.972 28.1484 128.014 28.1488 128.057 28.1525ZM128.795 28.7327C128.828 28.8192 128.848 28.9124 128.855 29.0101C128.861 29.0972 128.856 29.1822 128.84 29.2634C128.937 29.2144 129.034 29.1611 129.131 29.1035C129.022 28.9707 128.91 28.8472 128.795 28.7327ZM130.099 29.6149C128.892 30.4824 127.63 30.8114 126.341 30.5835C125.051 30.3555 123.978 29.6142 123.14 28.3852C122.993 28.1699 123.044 27.8768 123.256 27.7247C124.464 26.8572 125.725 26.5282 127.015 26.7561C128.304 26.9841 129.377 27.7254 130.216 28.9545C130.363 29.1697 130.311 29.4629 130.099 29.6149ZM130.786 33.8565C130.022 34.2294 129.127 34.2013 128.128 33.799C127.882 33.6999 127.763 33.4203 127.862 33.1744C127.961 32.9285 128.241 32.8094 128.487 32.9085C129.252 33.2164 129.869 33.2359 130.365 32.9938C130.603 32.8775 130.89 32.9764 131.007 33.2146C131.123 33.4529 131.024 33.7402 130.786 33.8565ZM114.049 19.3683L114.383 13.7721L111.178 12.8103C110.861 12.7151 110.68 12.3806 110.776 12.0632C110.839 11.8521 111.013 11.6927 111.229 11.648C116.338 10.592 121.447 9.53596 126.555 8.47992C131.741 9.54171 136.926 10.6035 142.111 11.6653C142.436 11.7318 142.645 12.0488 142.579 12.3735C142.534 12.589 142.376 12.763 142.166 12.8271L133.91 15.34L126.576 17.1349L119.11 15.1907L115.328 14.0556L115.014 19.3087C115.259 19.3824 115.473 19.5263 115.61 19.75C115.729 19.9444 115.769 20.2527 115.774 20.5022C115.78 20.8511 115.595 21.1171 115.387 21.3508C115.317 21.4285 115.223 21.5102 115.109 21.5774C115.337 21.7663 115.487 22.1143 115.557 22.6214L116.763 27.6129C116.119 27.5904 115.797 27.5791 115.797 27.5791C115.693 27.1613 115.589 26.7435 115.485 26.3257C115.459 26.2218 115.367 26.1476 115.26 26.1439C115.128 26.1393 115.016 26.2429 115.012 26.3754L114.971 27.5502L114.133 27.521L114.167 26.5505C114.171 26.4415 114.101 26.3436 113.996 26.3122C113.869 26.2742 113.735 26.3463 113.697 26.4733L113.391 27.495L112.649 27.4691C113.209 24.9141 113.501 23.2745 113.526 22.5505C113.547 21.9532 113.661 21.66 113.882 21.5214C113.563 21.3463 113.404 21.0989 113.394 20.5437C113.389 20.2898 113.513 19.9853 113.629 19.7845C113.74 19.5943 113.879 19.4564 114.049 19.3683Z" fill="#001343"/>
</svg>
